# xmcd
#
# Track frame offsets: 
#        150
#        21149
#        40408
#
# Disc length: 816 seconds
#
# Revision: 2
# Processed by: cddbd v1.5.2PL0 Copyright (c) Steve Scherf et al.
# Submitted via: ExactAudioCopy v0.95b4
#
DISCID=1d032e03
DTITLE=Zeebra - SUPATECH(what's my name?)
DYEAR=2003
DGENRE=Hip-Hop
TTITLE0=SUPATECH(what's my name?)
TTITLE1=SUPATECH(what's my name?)(Remix)
TTITLE2=SUPATECH(what's my name?)
EXTD=
EXTT0=
EXTT1=
EXTT2=
PLAYORDER=
